<svg xmlns="http://www.w3.org/2000/svg" width="58" height="55" viewBox="0 0 58 55">
  <path fill="#2A2B2A" d="M50.102,29.47 C52.3387279,29.4648717 54.468917,28.5138426 55.966,26.852 C58.924,23.172 58.205,18.491 54.999,15.117 C53.0432612,13.1061777 50.5169575,11.7447593 47.762,11.217 C45.6692016,10.6950657 43.5188314,10.4397092 41.362,10.457 C40.296,10.457 39.11,10.519 37.925,10.64 C36.5708068,10.7626153 35.2327871,11.0239866 33.932,11.42 C34.584,9.406 35.016,8.081 35.048,8.007 C35.978,5.123 35.874,2.907 34.64,1.494 C32.695,-0.716 29.109,-0.086 27.698,0.912 C26.2036388,1.85607616 25.0260958,3.22587114 24.317,4.845 C24.4201149,3.64842238 24.0406275,2.46027384 23.263,1.545 C21.363,-0.665 17.733,-0.083 16.369,0.963 C14.8313172,1.945395 13.6217225,3.36424888 12.895,5.038 C13.0415469,3.80159628 12.6775146,2.55890268 11.887,1.597 C11.4547515,1.10178914 10.8993451,0.729563363 10.277,0.518 C9.38056737,0.208786559 8.43824848,0.0535930278 7.49,0.059 C4.044,0.074 1.41,2.259 1.421,4.666 C1.37130996,5.24524347 1.56167806,5.81947645 1.94755593,6.25432167 C2.3334338,6.68916689 2.88095748,6.94646312 3.462,6.966 C4.16188334,6.96278469 4.80688687,6.58643027 5.15404395,5.97870584 C5.50120104,5.3709814 5.49777026,4.62421475 5.14504395,4.01970571 C4.79231765,3.41519666 4.14388334,3.04478453 3.444,3.048 C2.99718712,3.03900665 2.56216215,3.19170929 2.219,3.478 C2.69549853,2.48462107 3.51117299,1.69412613 4.519,1.249 C6.119,0.77 8.863,1.465 7.606,5.2 C7.467,5.626 1.04,25.01 0.667,26.1 C-0.264,28.983 -0.3,31.3 1.075,32.659 C2.71900213,34.1191747 5.18046636,34.1679292 6.881,32.774 C6.981,32.674 6.738,32.397 6.597,32.492 C5.514,33.205 4.235,32.172 4.888,30.471 C5.029,30.092 11.92,9.243 12.288,8.108 C12.381,7.777 12.475,7.493 12.52,7.257 C13.78,3.9 15.328,1.863 17.26,1.099 C18.439,0.763 20.236,1.463 19.026,5.15 C18.885,5.576 12.46,24.96 12.087,26.05 C11.109,28.934 11.119,31.25 12.494,32.61 C14.1199471,34.0707518 16.5705593,34.1201044 18.254,32.726 C18.395,32.626 18.11,32.349 18.017,32.443 C16.934,33.156 15.655,32.123 16.309,30.421 C16.448,30.043 23.292,9.194 23.709,8.059 C23.848,7.539 23.988,7.114 24.081,6.641 C25.293,3.615 26.796,1.766 28.634,1.05 C29.765,0.714 31.562,1.414 30.351,5.102 C30.329,5.193 28.572,10.414 26.713,15.929 C26.483,16.613 26.251,17.3 26.02,17.983 C25.52,19.467 25.027,20.928 24.573,22.273 L23.814,24.523 C23.028,26.849 22.47,28.5 22.387,28.742 C19.733,36.873 24.242,42.092 31.037,41.731 C31.037,41.731 25.654,41.425 26.708,34.151 C26.739,33.966 27.189,32.501 27.865,30.351 C28.6172599,30.672232 29.4241996,30.8460449 30.242,30.863 C32.2112132,30.8431812 33.9909531,29.6852781 34.807,27.893 L34.807,27.714 C34.9011032,27.5938024 34.9621234,27.4510771 34.984,27.3 L34.925,27.24 C34.979803,27.1502372 35.0003961,27.0437213 34.983,26.94 C35.0071882,26.0339287 34.5371125,25.1862819 33.7557225,24.7269564 C32.9743324,24.2676309 32.0050679,24.2691886 31.2251582,24.7310232 C30.4452485,25.1928578 29.9778997,26.0420111 30.005,26.948 C30.0491815,28.2823515 31.1058804,29.3616257 32.439,29.434 C32.498,29.434 32.617,29.375 32.675,29.374 C31.9605386,29.8674941 31.1152566,30.1369539 30.247,30.148 C29.5003391,30.1448861 28.7623281,29.9879566 28.079,29.687 C29.626,24.787 32.129,16.987 33.679,12.195 C35.0747099,11.7294619 36.5191035,11.4251495 37.984,11.288 C39.1686667,11.1666667 40.2946667,11.1053333 41.362,11.104 C41.896,11.104 42.43,11.162 43.081,11.161 C49.781,11.98 52.693,17.074 51.397,22.41 C50.455,26.501 48.028,28.224 45.419,28.228 C45.119,28.228 44.945,28.17 44.708,28.171 C45.476,25.916 46.065,24.137 46.36,23.371 C47.6,19.754 47.595,16.79 45.814,15.192 C43.38,12.765 39.647,13.661 38.523,14.967 C38.346,15.144 38.643,15.382 38.76,15.322 C40.241,14.431 41.844,15.732 41.077,17.867 C40.722,18.579 32.048,43.842 31.635,44.734 C29.449,49.893 25.545,53.989 21.095,51.566 C19.5648012,50.6385737 18.6379015,48.9722074 18.657,47.183 C18.651712,46.3174414 18.854034,45.4632311 19.247,44.692 C19.9852207,43.0476954 21.6457111,42.0142378 23.447,42.078 L23.807,42.078 C23.0215981,42.536398 22.5296678,43.3688955 22.507,44.278 C22.4940903,45.5231051 23.3826327,46.5953128 24.6084756,46.8138589 C25.8343186,47.0324051 27.0386513,46.3333202 27.4568211,45.1604658 C27.8749908,43.9876115 27.3845972,42.6842884 26.297,42.078 C25.4149186,41.6275712 24.4413118,41.3853668 23.451,41.37 C21.4013085,41.3141356 19.5146375,42.4822994 18.651,44.342 C18.1935967,45.221367 17.9516214,46.1968087 17.945,47.188 C17.9971252,49.3764617 19.2232008,51.3674496 21.154,52.399 C23.6671926,53.8937144 26.6407728,54.4162876 29.513,53.868 C31.6134003,53.392305 33.540578,52.3430369 35.08,50.837 C36.1576259,52.3324346 37.7745898,53.3501644 39.589,53.675 C39.9782188,53.7815353 40.3745652,53.8600694 40.775,53.91 L40.894,53.969 C47.06,54.969 52.214,53.24 55.051,48.315 C57.651,43.925 57.644,38.176 55.386,34.446 C54.2169669,32.253551 52.3606253,30.5054141 50.102,29.47 L50.102,29.47 Z M49.119,45.119 C46.819,51.287 43.319,53.427 39.588,53.019 C37.9215402,52.6785993 36.4531284,51.7026471 35.494,50.298 C37.0039545,48.7366016 38.1720996,46.8777864 38.924,44.84 C40.281,41.697 42.701,34.283 44.471,28.887 C45.3620218,29.0629909 46.2352601,29.3193729 47.08,29.653 C50.759,32.254 52.012,37.528 49.119,45.119 L49.119,45.119 Z"/>
</svg>
