<svg xmlns="http://www.w3.org/2000/svg" viewBox="0 0 338.1 115.86"><defs><style>.cls-1{opacity:0.9;}.cls-2{fill:none;stroke:#2a2b2a;stroke-linecap:round;stroke-linejoin:round;stroke-width:0.69px;}.cls-3{fill:#2a2b2a;}</style></defs><title>Asset 1</title><g id="Layer_2" data-name="Layer 2"><g id="Layer_1-2" data-name="Layer 1"><g id="Swashes"><g class="cls-1"><path class="cls-2" d="M36.49,44.94c30.21,17.17,64.9-2.45,84.06-15.34,24.14-16.24,52.34-36.1,92.66-22.35"/><path class="cls-2" d="M92,45.32S82.76,49,77.64,43c-4.46-4.75-1.54-14.43,6.8-12.36,4.74,1.73,4.19,8.82-.59,8.08"/><path class="cls-3" d="M84.62,38.33A2.2,2.2,0,1,1,82.52,36,2.19,2.19,0,0,1,84.62,38.33Z"/><path class="cls-2" d="M68.85,51.18S54.18,53.43,48.3,43c-5.24-8.76,2.48-22.08,14.24-16.1,6.38,3.8,2.8,14.72-4.06,12"/><path class="cls-3" d="M60.09,39a3.35,3.35,0,1,1-2.36-4.11A3.36,3.36,0,0,1,60.09,39Z"/><path class="cls-2" d="M211,19.19c.58,3.61,5.5,4.82,8.66,1.39,4.72-6.11-1.32-9.86-1.32-9.86L213,7.23l3.06,10.17C214.6,14.38,210.67,16.33,211,19.19Z"/><path class="cls-2" d="M218.37,10.67s5.89,4,9.55-2.82c1.83-4.29-1.27-8.28-4.81-7.34-2.75.87-2.92,5.25.43,5.35L213,7.2Z"/><path class="cls-2" d="M151.58,104.53c35.41,23,64.63,4.6,91.39-6.82,21.23-9.06,59-21.81,85.44.73"/><path class="cls-2" d="M274,87.64s9.75-1.87,13.66,5c3.48,5.51-1.21,14.47-9,10.86-4.33-2.58-2.46-9.44,2.1-7.82"/><path class="cls-3" d="M279.9,95.89a2.19,2.19,0,1,1,1.63,2.64A2.18,2.18,0,0,1,279.9,95.89Z"/><path class="cls-2" d="M297.8,86.23s14.83.55,18.64,11.93c3.5,9.6-6.58,21.23-17,13.15-5.55-4.94,0-15,6.24-11"/><path class="cls-3" d="M304.11,99.9a3.35,3.35,0,1,1,1.54,4.47A3.35,3.35,0,0,1,304.11,99.9Z"/><path class="cls-2" d="M153.12,92.54c-.71-3.59-5.66-4.62-8.7-1.08-4.5,6.27,1.66,9.81,1.66,9.81l5.48,3.29-3.43-10C149.69,97.48,153.55,95.39,153.12,92.54Z"/><path class="cls-2" d="M146.05,101.32s-6-3.78-9.44,3.15c-1.68,4.35,1.56,8.23,5.07,7.16,2.71-1,2.73-5.35-.62-5.32l10.48-1.72Z"/></g><path class="cls-2" d="M36.41,44.91c30.21,17.17,64.9-2.45,84.06-15.34,24.14-16.24,52.33-36.1,92.66-22.35"/><path class="cls-2" d="M91.9,45.29S82.68,49,77.56,43C73.1,38.23,76,28.55,84.36,30.62c4.74,1.73,4.19,8.82-.59,8.08"/><path class="cls-3" d="M84.54,38.3A2.2,2.2,0,1,1,82.44,36,2.19,2.19,0,0,1,84.54,38.3Z"/><path class="cls-2" d="M68.77,51.15S54.1,53.4,48.22,42.93C43,34.17,50.7,20.85,62.46,26.83c6.38,3.8,2.8,14.72-4.06,12"/><path class="cls-3" d="M60,38.92a3.35,3.35,0,1,1-2.36-4.11A3.36,3.36,0,0,1,60,38.92Z"/><path class="cls-2" d="M210.92,19.16c.58,3.61,5.49,4.82,8.66,1.39,4.71-6.11-1.32-9.86-1.32-9.86L212.9,7.2,216,17.37C214.52,14.35,210.59,16.3,210.92,19.16Z"/><path class="cls-2" d="M218.29,10.64s5.89,4,9.55-2.82c1.83-4.29-1.27-8.28-4.81-7.34-2.75.87-2.92,5.25.43,5.35L212.92,7.17Z"/><path class="cls-2" d="M151.5,104.5c35.41,23,64.63,4.6,91.39-6.82,21.23-9.06,59-21.81,85.44.73"/><path class="cls-2" d="M273.9,87.61s9.75-1.87,13.65,5c3.49,5.51-1.2,14.47-9,10.86-4.33-2.58-2.46-9.44,2.1-7.82"/><path class="cls-3" d="M279.82,95.86a2.19,2.19,0,1,1,1.63,2.64A2.18,2.18,0,0,1,279.82,95.86Z"/><path class="cls-2" d="M297.72,86.2s14.83.55,18.64,11.94c3.5,9.59-6.58,21.22-17,13.14-5.55-4.94,0-15,6.24-11"/><path class="cls-3" d="M304,99.87a3.35,3.35,0,1,1,1.54,4.47A3.35,3.35,0,0,1,304,99.87Z"/><path class="cls-2" d="M153,92.51c-.71-3.59-5.66-4.62-8.7-1.08-4.5,6.27,1.66,9.81,1.66,9.81l5.48,3.29-3.43-10C149.61,97.45,153.47,95.36,153,92.51Z"/><path class="cls-2" d="M146,101.29s-6-3.78-9.44,3.15c-1.68,4.35,1.56,8.23,5.07,7.16,2.71-1,2.73-5.35-.62-5.32l10.48-1.72Z"/></g><path class="cls-3" d="M36.38,95c-1.08,0-5.38-.42-5.45-7.14,0-.86,4.3-28,4.39-28.35.5-3.13,0-5.41-1.47-6.67a4.71,4.71,0,0,0-3-1,6.61,6.61,0,0,0-4.27,1.55,9.3,9.3,0,0,0-2.86,4.61,4.71,4.71,0,0,0-1.61-3.24,4.59,4.59,0,0,0-3-1.05,6.24,6.24,0,0,0-4.24,1.56A9.59,9.59,0,0,0,12,60a4.78,4.78,0,0,0-1.6-3.39,3.91,3.91,0,0,0-1.84-.86A8.72,8.72,0,0,0,7,55.6a7.51,7.51,0,0,0-1.44.11C2,56.28-.36,59,0,61.44a2.25,2.25,0,0,0,2.25,2.08l.23,0a2.06,2.06,0,0,0,1.72-2.38,2,2,0,0,0-1.95-1.69,2,2,0,0,0-.42,0,2,2,0,0,0-1.19.64,4.78,4.78,0,0,1,2-2.67,3.49,3.49,0,0,1,1.36-.33C5.52,57,7,58,6.52,61c-.07.47-3.59,21.53-3.8,22.71-.5,3.13-.16,5.52,1.48,6.71a4.37,4.37,0,0,0,2.25.75,4.67,4.67,0,0,0,3.77-1.57c.07-.1-.15-.3-.29-.27a.05.05,0,0,0,0,0,1.38,1.38,0,0,1-.81.36c-.82,0-1.58-.78-1.28-2.18.08-.41,3.84-23.06,4-24.29,0-.36.09-.66.1-.92.76-3.67,2-6,3.91-7.12a1.91,1.91,0,0,1,.71-.18c1.1-.07,2.3.83,1.76,4.08-.07.46-3.59,21.52-3.8,22.7C14,85,14.35,87.34,16,88.52a4.21,4.21,0,0,0,2.23.76A4.57,4.57,0,0,0,22,87.72c.11-.11-.13-.31-.25-.28l0,0a1.33,1.33,0,0,1-.81.37c-.82,0-1.58-.78-1.28-2.18.08-.41,3.79-23.05,4-24.29.06-.56.14-1,.16-1.53s.2-.81.31-1.19c.78-2.65,1.93-4.41,3.49-5.32a2,2,0,0,1,.7-.18c1.06-.06,2.26.84,1.73,4.09,0,.2-4.24,24.67-4.42,25.7-1.25,7.73,2.8,12.27,8.5,12.3A12.53,12.53,0,0,0,36.62,95h-.24Z"/><path class="cls-3" d="M39.76,67.61a2.19,2.19,0,0,0,.51,0,2.55,2.55,0,0,0,2.12-2.94A2.51,2.51,0,0,0,40,62.53a2.3,2.3,0,0,0-.52,0,2.5,2.5,0,0,0-2,1.66,2.54,2.54,0,0,0,2.27,3.39Z"/><path class="cls-3" d="M67.77,63a2.56,2.56,0,0,0,3.13-2.9A2.57,2.57,0,0,0,68.49,58,2.36,2.36,0,0,0,68,58a2.53,2.53,0,0,0-2.08,2.89A2.57,2.57,0,0,0,67.77,63Z"/><path class="cls-3" d="M132.43,50.17a2.56,2.56,0,0,0,2.39,2.17l.51,0a2.55,2.55,0,0,0,2.12-2.94A2.51,2.51,0,0,0,135,47.26a2.3,2.3,0,0,0-.52,0,2.51,2.51,0,0,0-2.11,2.63A2.11,2.11,0,0,0,132.43,50.17Z"/><path class="cls-3" d="M148.07,48.26l-.12-.13a4.51,4.51,0,0,0-1.84,4.44,17.08,17.08,0,0,1-3.45,6.15c-.25.26-.5.52-.78.78l.37.44h0a15.09,15.09,0,0,0,4-6.14A14.93,14.93,0,0,0,147,56c3.77,8.49.27,11.53-2.53,11.55a3.53,3.53,0,0,1-1.14-.16,3.14,3.14,0,0,1-1.8-2.21,2.51,2.51,0,0,1,0-.67v0h0a4.83,4.83,0,0,1,.13-.76,1.77,1.77,0,0,0,1.56,1.07l.31,0a1.68,1.68,0,0,0-.2-3.34l-.33,0c-1.3.21-1.91,1.66-2,2.89h0a9.59,9.59,0,0,1-2.64,4.42,1.54,1.54,0,0,1-.76.29c-.71,0-1.19-.57-1.08-1.49.27-1.74.74-4.12,1.06-5.87.54-3.14.16-5.52-1.48-6.71a4.11,4.11,0,0,0-2.23-.75,4.51,4.51,0,0,0-3.74,1.56c-.09.13.07.27.19.28a.09.09,0,0,0,.1,0,1.32,1.32,0,0,1,.81-.36c.82-.06,1.59.78,1.33,2.17-.38,1.71-.94,4.4-1.43,7a6.08,6.08,0,0,0-.07,1.63,9,9,0,0,1-1.86,3.16,7.12,7.12,0,0,1-1,.92,1.8,1.8,0,0,1-.9.31c-.8,0-1.27-.71-1.16-1.62.27-1.75,3.92-23.23,4.23-25,.55-3.08.17-5.47-1.47-6.66a4.06,4.06,0,0,0-2.23-.77,4.66,4.66,0,0,0-3.75,1.53c-.1.15.14.32.26.32a.05.05,0,0,0,0,0,1.38,1.38,0,0,1,.81-.36c.82-.06,1.59.77,1.32,2.12-.37,1.68-4,22.88-4.57,26l0,.13a5.78,5.78,0,0,0,.08,2.51,9.45,9.45,0,0,1-2.71,3.16,1.37,1.37,0,0,1-.76.22c-.71,0-1.22-.7-1.07-1.62.23-2.34,1.37-8.57,1.62-9.56.24-1.31.72-1.82,1.23-1.78a1,1,0,0,1,.51.2.21.21,0,0,0,.12,0c.14,0,.31-.1.25-.24a3.42,3.42,0,0,0-3.4-1.92,4.7,4.7,0,0,0-1.84.46,3.56,3.56,0,0,0-1.8,1.54,3.83,3.83,0,0,0-.93-.85l-.33-.16a5.73,5.73,0,0,0-2.67-.51,7.05,7.05,0,0,0-5,2.4c-2.35,2.52-3.31,7.53-2.45,10.81a9,9,0,0,1-2.48,3.93,1.54,1.54,0,0,1-.77.29c-.7,0-1.18-.57-1-1.5.22-1.73.73-4.12,1-5.87.47-2.93.2-5.26-1.23-6.47a2.37,2.37,0,0,0-.3-.23,4.73,4.73,0,0,0-1.15-.57,4.26,4.26,0,0,0-1.15-.19c-2.27,0-4.32,1.85-5.19,3.86A3.76,3.76,0,0,0,88,62.71,4.15,4.15,0,0,0,85.67,62a4.88,4.88,0,0,0-2.38.62A5.57,5.57,0,0,0,81,64.88c-.19.31-.36.63-.52.94a4.09,4.09,0,0,0-1.28-1.7A4.22,4.22,0,0,0,77,63.37a4.57,4.57,0,0,0-3.74,1.56c-.1.13.07.27.19.29s.08,0,.1,0a1.33,1.33,0,0,1,.81-.37c.82,0,1.59.78,1.33,2.17-.38,1.71-1,4.4-1.43,7a6,6,0,0,0-.07,1.73,9.51,9.51,0,0,1-2.4,3.72,1.52,1.52,0,0,1-.77.28c-.71,0-1.19-.57-1.08-1.49.27-1.74.74-4.12,1.06-5.87.55-3.13.16-5.52-1.48-6.71a4.25,4.25,0,0,0-2.23-.75,4.6,4.6,0,0,0-3.74,1.56c-.09.13.08.27.2.29a.12.12,0,0,0,.09,0,1.36,1.36,0,0,1,.81-.37c.76,0,1.47.65,1.38,1.83a2.15,2.15,0,0,1,0,.34c-.37,1.71-.94,4.4-1.43,7a5.94,5.94,0,0,0-.06,1.72A9.1,9.1,0,0,1,62.06,81a1.54,1.54,0,0,1-.77.29c-.72.06-1.22-.57-1.07-1.49.22-1.74.74-4.12,1.06-5.87.49-3.13.15-5.57-1.48-6.71a4.35,4.35,0,0,0-2.39-.75,5,5,0,0,0-2.38.62,6.72,6.72,0,0,0-2.83,3.25,3.68,3.68,0,0,0-1.27-1.69,4.21,4.21,0,0,0-2.23-.76A4.57,4.57,0,0,0,45,69.42c-.09.13.07.27.19.29a.09.09,0,0,0,.1,0,1.33,1.33,0,0,1,.81-.37,1.41,1.41,0,0,1,1.38,1.53,2.94,2.94,0,0,1,0,.64c-.38,1.71-.94,4.4-1.43,7a7.28,7.28,0,0,0-.1,1.2A9.64,9.64,0,0,1,43.25,84a1.45,1.45,0,0,1-.76.29c-.71,0-1.19-.57-1.08-1.49.27-1.74.74-4.12,1.06-5.87.54-3.13.16-5.52-1.48-6.71a4.19,4.19,0,0,0-2.23-.75A4.57,4.57,0,0,0,35,71c-.09.13.07.27.19.29a.15.15,0,0,0,.1,0,1.33,1.33,0,0,1,.81-.37c.82,0,1.59.78,1.33,2.17-.37,1.71-.94,4.4-1.43,7a7.2,7.2,0,0,0-.1,1,4.4,4.4,0,0,0,2.5,4.31,5.58,5.58,0,0,0,2.16.36,5,5,0,0,0,.69-.07c2.07-.37,3.79-2.43,4.76-4.72a4.17,4.17,0,0,0,2.33,2.83,4.79,4.79,0,0,0,1.77.38,4.17,4.17,0,0,0,2.57-.77c.5-.43.88-1.15.7-1.11a.22.22,0,0,0-.12.06,1.56,1.56,0,0,1-1,.36c-.64,0-1.06-.62-1-1.5.27-1.74.79-4.12,1.06-5.86a11.31,11.31,0,0,0,.08-4.16,10.44,10.44,0,0,1,1.57-2.66,1.42,1.42,0,0,1,1-.41c.75,0,1.4.69,1.16,2-.33,1.7-.94,4.4-1.43,7-.45,2.78,1,4.7,2.45,5.31a5.55,5.55,0,0,0,2.16.36,5,5,0,0,0,.69-.07c2-.36,3.63-2.25,4.6-4.4a4.11,4.11,0,0,0,2.25,2.55,5.55,5.55,0,0,0,2.16.36,5.2,5.2,0,0,0,.69-.07c2-.35,3.6-2.22,4.6-4.36a4.1,4.1,0,0,0,2.25,2.56,4.78,4.78,0,0,0,1.76.38A4.25,4.25,0,0,0,81,78.89c.35-.28.84-1.11.69-1.11s-.06,0-.11.06a1.59,1.59,0,0,1-1,.36c-.65,0-1.09-.62-.95-1.5.27-1.74.74-4.11,1-5.87a10.89,10.89,0,0,0,.08-4.16A8.56,8.56,0,0,1,82.33,64a1.56,1.56,0,0,1,1-.42c.75,0,1.36.7,1.12,2-.38,1.7-1,4.4-1.43,7a4.63,4.63,0,0,0,2.45,5.31,4.57,4.57,0,0,0,1.73.37,4.75,4.75,0,0,0,2.61-.77c.39-.28.81-1.1.64-1.09a.24.24,0,0,0-.11.06,1.61,1.61,0,0,1-1,.35c-.64,0-1.05-.62-.91-1.5.22-1.74.73-4.12,1-5.86a11.1,11.1,0,0,0,.08-4.16,10.94,10.94,0,0,1,1.58-2.66,1.22,1.22,0,0,1,.52-.37,1.09,1.09,0,0,1,.4-.07c.74,0,1.47.72,1.23,2-.33,1.7-1,4.4-1.43,7a4.61,4.61,0,0,0,2.45,5.3,4.92,4.92,0,0,0,1.81.37,5.85,5.85,0,0,0,1-.08c2-.36,3.77-2.42,4.72-4.71a4.94,4.94,0,0,0,.52,1,5.2,5.2,0,0,0,4.29,2.21,6.36,6.36,0,0,0,1.15-.08,13.26,13.26,0,0,0,4.7-2.16,4.83,4.83,0,0,0,2.85.74,9,9,0,0,0,.91-.09c1.71-.31,3.51-2,4.71-4a4,4,0,0,0,2.09,2.13,4.72,4.72,0,0,0,1.94.35,7.77,7.77,0,0,0,1.1-.09c2-.33,4-2.12,5.07-4.52a4.12,4.12,0,0,0,2.26,2.59,5.76,5.76,0,0,0,2.16.35,3.85,3.85,0,0,0,.69-.06c2.07-.37,3.79-2.43,4.76-4.72a3.39,3.39,0,0,0,1.71,2,8,8,0,0,0,9.55-1.48c2.28-2.62,1.44-7.28-.8-10.62S148.09,51.21,148.07,48.26Zm-36.22,11a2.16,2.16,0,0,1,.83.81,67.1,67.1,0,0,0-1.87,8,4.89,4.89,0,0,0,1.28,4.55A5.2,5.2,0,0,1,109,73.81c-2.46-.14-3-3.93-2.5-7.12.84-5.49,3-7.7,4.57-7.69a1.34,1.34,0,0,1,.35,0A1.66,1.66,0,0,1,111.85,59.23Z"/><path class="cls-3" d="M161.39,60.41c.71-4.26,2-11.72,2.84-16.75a7,7,0,0,0,.83.06l.82,0c2-.08,4.81-.87,4.42-3.31a1.59,1.59,0,0,0-.09-.33A1.64,1.64,0,0,0,168.72,39a1.4,1.4,0,0,0-.35,0A1.68,1.68,0,0,0,167,40.92a1.71,1.71,0,0,0,1.58,1.41,1.37,1.37,0,0,0,.35,0,5,5,0,0,1-2,.72,9.62,9.62,0,0,1-1.54.13c-.41,0-.74,0-1-.06.42-2.32.7-4,.78-4.48.5-3.08.17-5.47-1.47-6.66a4.29,4.29,0,0,0-2.27-.77,4.67,4.67,0,0,0-3.76,1.54c-.06.14.14.32.26.31h0a1.41,1.41,0,0,1,.83-.37c.83,0,1.57.77,1.3,2.13-.11.57-.63,3.55-1.28,7.25a16.83,16.83,0,0,0-3.26-.55l-.42,0a2.66,2.66,0,0,0-2.36,3.08,1.82,1.82,0,0,0,1.71,1.44,1.69,1.69,0,0,0,.32,0,1.67,1.67,0,0,0,1.39-1.93,1.49,1.49,0,0,0-1.56-1.32,3.64,3.64,0,0,0-.74,0,2.18,2.18,0,0,1,1.33-.71,2.32,2.32,0,0,1,.46,0,13,13,0,0,1,3,.58c-1.26,7.1-2.88,16.61-3.22,18.26a4.64,4.64,0,0,0,2.45,5.31,4.86,4.86,0,0,0,1.91.36,6.5,6.5,0,0,0,1.09-.1,2.52,2.52,0,0,0,.46-.1c2.31-.62,4.46-3.08,5.24-6.11l-.58-.16h0A9,9,0,0,1,163,65a1.92,1.92,0,0,1-.93.32c-.82,0-1.28-.72-1.14-1.68C160.92,63.25,161.11,62.08,161.39,60.41Z"/><path class="cls-3" d="M210,57.65c.34-.06.68-.14,1-.23a10.74,10.74,0,0,0,6.4-4.58c3.23-5.63,1.25-11.84-3.82-15.74-3.24-2.7-7.32-3.46-10.67-3.75l-1-.08c-.68,0-1.37-.06-2.09-.06a38,38,0,0,0-5.79.47c-1.44.23-3,.57-4.63,1-10.39,2.64-16,10-16.54,16.41a16.68,16.68,0,0,0,.1,4.28c1,6,5.44,8.68,9.53,8.5.27,0,.54,0,.81-.07a7,7,0,0,0,5.39-4.51c.06-.16.12-.33.17-.5,0,0,0-.17,0-.25a1.24,1.24,0,0,0,.15-.6l-.09-.07a.68.68,0,0,0,0-.41,3.46,3.46,0,0,0-4-2.91,3.44,3.44,0,0,0-2.75,4,3.57,3.57,0,0,0,3.51,2.89l.33,0c.08,0,.23-.12.31-.13a6,6,0,0,1-3.14,1.57,7.43,7.43,0,0,1-1.42.08c-3.37-.13-7-2.55-7.79-7.7a14.84,14.84,0,0,1-.07-4c.37-6,5.69-13,15.76-15.63a46.22,46.22,0,0,1,4.56-1c.72-.12,1.46-.15,2.34-.29,9.28-.32,14.33,6,13.7,13.51a17.09,17.09,0,0,1-.26,2c-.88,4.42-3.51,6.67-6.61,7.16-.4.06-.66,0-1,.07.56-3.22,1-5.77,1.22-6.88.85-4.85.34-8.7-2-10.63a5.6,5.6,0,0,0-.49-.36c-3.83-2.78-8.71-.77-10,1.25-.18.24.15.47.33.45l.07,0a2.5,2.5,0,0,1,1.43-.61c1.43-.1,2.7,1.27,2.26,3.57,0,0,0,.1-.05.2-.67,3.07-6.68,37.07-7,38.32-1.57,6.31-5,11.86-9.94,12a7.82,7.82,0,0,1-2.92-.49,7,7,0,0,1-4.25-5.43,7.51,7.51,0,0,1,.27-3.52,6.12,6.12,0,0,1,5.16-4.45l.48-.07a3.48,3.48,0,0,0,2.79,6.16,3.48,3.48,0,0,0,.59-6.7,7.7,7.7,0,0,0-2.89-.42,11.23,11.23,0,0,0-1.13.07,7.55,7.55,0,0,0-1.78.5,6.8,6.8,0,0,0-4.1,4.56,8.53,8.53,0,0,0-.35,4A8.22,8.22,0,0,0,175,94.76l.52.22a16.38,16.38,0,0,0,11.67.21,16,16,0,0,0,6.92-5.3,9.81,9.81,0,0,0,6.73,2.89,10.79,10.79,0,0,0,1.24.07h.42l.18.06h0c8.05,0,14.39-3,17.46-9.38.2-.43.39-.87.57-1.33,2.59-6.52,1.35-14.33-2.51-18.91A15.55,15.55,0,0,0,210,57.65ZM195.73,87.33a24.28,24.28,0,0,0,2.36-6.41c.92-3.56,2.16-10.8,3.25-17.48.31-1.87.61-3.69.88-5.38a21.54,21.54,0,0,1,3.71.48c5.55,2.75,8.38,9.65,6.07,20.58-.11.56-.23,1.09-.36,1.61-2,7.71-6.06,10.94-10.9,11.16a8.94,8.94,0,0,1-6.14-2.82A15.3,15.3,0,0,0,195.73,87.33Z"/><path class="cls-3" d="M338.09,49.85c0-.18,0-.37-.07-.55a5.47,5.47,0,0,0-5.22-4.81h-.38a6.7,6.7,0,0,0-1,.06c-2.79.44-4.47,2.64-5.39,5.31a17.4,17.4,0,0,0-.67,2.63,12.27,12.27,0,0,0-.39-1.45,6.42,6.42,0,0,0-6.44-4.62c-2.65,0-5.08,1.34-5.92,2.63-.16.21.12.45.32.48a.2.2,0,0,0,.17-.05,2.6,2.6,0,0,1,.32-.26,2.45,2.45,0,0,1,.69-.3,2,2,0,0,1,.34-.05c1.39-.09,2.67,1.31,2.16,3.67s-1.34,6.3-2.05,10.1c-.1.55-.2,1.09-.29,1.63a11.3,11.3,0,0,0-.18,1.77c-2.64,4.49-6.23,7.66-9.41,8.84L304,75a5.67,5.67,0,0,1-1.21.09c-2.5-.12-4.13-2.19-4.52-6,6.59-5.42,10.21-10.32,11-14.17a7.4,7.4,0,0,0,.13-2.5,5.11,5.11,0,0,0-4.33-3.94,10.08,10.08,0,0,0-2.29-.26,11,11,0,0,0-7.68,3.33c-.24.23-.47.48-.71.73-4.18,4.47-5.66,13.58-3.82,19.09a15.48,15.48,0,0,1-3.85,5.69,2.5,2.5,0,0,1-.64.37,2.09,2.09,0,0,1-.61.15c-1.18.09-2.05-1-1.85-2.55.09-.55.15-.94.19-1.23l0-.27,0-.11c.13-.8.1-.59.49-2.71.93-5.28.36-9.4-2.47-11.31a7.1,7.1,0,0,0-4-1.28,8.5,8.5,0,0,0-4.05,1l-.7.37a88.94,88.94,0,0,1,5.18-8.73,3.93,3.93,0,0,0-.26,2.06,4.29,4.29,0,0,0,4.06,3.64,5.2,5.2,0,0,0,.88,0,3.84,3.84,0,0,0,1.36-.47,4.83,4.83,0,0,0,2.24-5,4.43,4.43,0,0,0-4.41-3.68,4.25,4.25,0,0,0-.8,0c-4.57.9-7,9.19-11,14.7,1.69-8.82,3.67-19,4.61-23.88.26-1.36.44-2.3.51-2.68.93-5.28.29-9.31-2.47-11.31-3.79-2.68-8.76-.63-10.05,1.35-.22.2.35.61.49.42a2.26,2.26,0,0,1,1.36-.61c1.39-.09,2.68,1.3,2.22,3.58-.63,2.88-7.91,39.71-8.74,44.05a9.28,9.28,0,0,0,.2,4.38,15.89,15.89,0,0,1-4.49,5.14,2.37,2.37,0,0,1-1.27.36c-1.2,0-2.06-1.18-1.8-2.73.05-.49.12-1.09.21-1.76.64-4.66,2.18-12.88,2.54-14.33.41-2.21,1.22-3.07,2.08-3a1.66,1.66,0,0,1,.86.35.31.31,0,0,0,.2,0c.23,0,.52-.16.42-.4-.58-1.67-2.82-3.37-5.72-3.26a8.31,8.31,0,0,0-3.09.79,5.82,5.82,0,0,0-3,2.59,6.24,6.24,0,0,0-1.57-1.44,7.35,7.35,0,0,0-1.16-.54c-.21-.08-.44-.15-.67-.22l-.36-.1a11.38,11.38,0,0,0-2.42-.29,11.84,11.84,0,0,0-8.82,4c-4.82,5.14-6.2,16.56-2.76,21.31A8.78,8.78,0,0,0,235,87.71a10.61,10.61,0,0,0,1.94-.13A22.44,22.44,0,0,0,244.82,84a8,8,0,0,0,4.4,1.26,11.94,11.94,0,0,0,1.92-.16c2.84-.51,5.85-3.32,7.88-6.53a6.86,6.86,0,0,0,3.5,3.46,7.76,7.76,0,0,0,7.3-.65c.92-.66,1.44-1.91,1.1-1.85a.45.45,0,0,0-.2.11,2.66,2.66,0,0,1-1.64.6c-1.06,0-1.76-1.06-1.53-2.54.09-1,1-5.8,2.17-11.79a16.27,16.27,0,0,1,2.61-4.2A2.51,2.51,0,0,1,274,61c1.25,0,2.29,1.18,1.83,3.33-.57,2.79-.47,1.84-1.3,6.18-.85,4.68,1.52,7.93,4,9a9.24,9.24,0,0,0,3.63.6,8.63,8.63,0,0,0,1.16-.1c.25,0,.51-.11.76-.18,2.93-.89,5.4-3.77,6.95-7.05a7.84,7.84,0,0,0,.54,1A8.41,8.41,0,0,0,294,76a9.32,9.32,0,0,0,4.85,1.44,11.62,11.62,0,0,0,1.95-.13c6-1.1,10.42-5,13.37-9.56a7.1,7.1,0,0,0,4.08,5.52,7.59,7.59,0,0,0,2.92.65,7.35,7.35,0,0,0,4.16-1.14l.22-.16c.9-.73,1.66-2.28,1-1.76a3.13,3.13,0,0,1-.69.41,2.18,2.18,0,0,1-1,.2c-1.09,0-1.83-1.07-1.61-2.61.86-5.19,1.92-13.86,3.61-18.58.94-2.59,2.26-4.32,4.64-4.7a4.59,4.59,0,0,1,.89-.07l.37,0a4.27,4.27,0,0,1,4.08,3.2,6.74,6.74,0,0,1,.17.75,4.18,4.18,0,0,1,.07,1,4.33,4.33,0,0,0-4-3.16,4.2,4.2,0,0,0-.79.05,4.3,4.3,0,0,0-3.65,4.07,4.39,4.39,0,0,0,.06.88c0,.14.05.28.08.42a4.28,4.28,0,0,0,4,3.14,5.26,5.26,0,0,0,.88-.05A5.4,5.4,0,0,0,338.09,49.85Zm-94.42,11a3.57,3.57,0,0,1,1.4,1.38c-.89,2.33-1.63,6.15-3.16,13.46a8.38,8.38,0,0,0,1.54,7,7.45,7.45,0,0,0,.6.65,13.82,13.82,0,0,1-3,1.64,7.41,7.41,0,0,1-1.25.35l-.56.06a3.29,3.29,0,0,1-.54,0c-4.14-.25-5-6.64-4.19-12,1.44-9.25,5-13,7.72-12.94a2.79,2.79,0,0,1,1.14.25Zm54.8,2.24c1.07-7.37,5.23-12.79,7.86-12.91.8,0,1.45.42,1.84,1.46a5.15,5.15,0,0,1,.26,1,5.4,5.4,0,0,1,0,1.34,4.88,4.88,0,0,1-.12.75l-.09.4c-.07.26-.16.54-.26.82s-.1.28-.16.43c-1.27,3.18-4.39,7.24-9.66,11.61A23.26,23.26,0,0,1,298.47,63.07Z"/><g id="Est._2012" data-name="Est. 2012"><path class="cls-3" d="M90.53,98.11a1.86,1.86,0,0,1-1.73-1A4.24,4.24,0,0,1,90,92.9a2.2,2.2,0,0,1,2.27-.42,1,1,0,0,1,.74.93c0,.85-.93,1.91-2.77,3,0,.94.35,1.43,1.1,1.35A4.36,4.36,0,0,0,93.8,96l.15.11A4.31,4.31,0,0,1,90.53,98.11Zm0-2.92a4.86,4.86,0,0,0-.22,1c1.75-1,2.56-2.08,2.56-2.76C92.85,92.11,91.14,93.17,90.51,95.19Z"/><path class="cls-3" d="M97.25,97.56a2.77,2.77,0,0,1-3.32,0,1.11,1.11,0,0,1-.47-.93c0-.44.3-1.19.88-1.19a.58.58,0,0,1,0,1.16.61.61,0,0,1-.58-.46,1.18,1.18,0,0,0-.12.49,1.11,1.11,0,0,0,.49.85c.9.45,2.8-.14,1.87-3.66a5.18,5.18,0,0,1-.14-.78,5.22,5.22,0,0,1-1.69,1.86l-.1-.17a5.64,5.64,0,0,0,1.81-2.11,1.55,1.55,0,0,1,.86-1.41l0,0c-.15,1,.21,1.43.78,2.68S98.16,96.8,97.25,97.56Z"/><path class="cls-3" d="M103.05,90.67a3.66,3.66,0,0,1-.56-.1c-.77,2.3-2.09,6.16-2.21,6.56s.12.78.62.58a3.11,3.11,0,0,0,1.31-1.47l.18.08a2.76,2.76,0,0,1-2.26,1.79,1.84,1.84,0,0,1-1-.25,1.58,1.58,0,0,1-.55-1.93c.21-.54,1.27-3.67,2.09-6a3.45,3.45,0,0,0-1.15-.37.77.77,0,0,0-.5.17c.34,0,.72.12.72.56a.58.58,0,0,1-.58.58.63.63,0,0,1-.61-.6.91.91,0,0,1,1-.91,4.07,4.07,0,0,1,1.21.37c.43-1.22.77-2.2.83-2.38.22-.6-.22-1-.62-.72,0,0-.12-.06-.09-.11a1.61,1.61,0,0,1,2.08.06c.49.5.48,1.32.14,2.34,0,.15-.24.71-.51,1.47a3.1,3.1,0,0,0,.88.12,1.6,1.6,0,0,0,.71-.14.58.58,0,1,1,.58-.57C104.73,90.64,103.75,90.75,103.05,90.67Z"/><path class="cls-3" d="M103.59,96.22a.94.94,0,1,1-.93,1A.93.93,0,0,1,103.59,96.22Z"/><path class="cls-3" d="M114.46,98.1h-5.2V98a22.14,22.14,0,0,0,3.06-3.32,11.07,11.07,0,0,0,1.19-1.94,3.71,3.71,0,0,0,.37-1.53,2.29,2.29,0,0,0-.62-1.62A1.6,1.6,0,0,0,112,89a1.71,1.71,0,0,0-1.58,1,2.08,2.08,0,0,0-.18.87,1.76,1.76,0,0,0,.52,1.29,1.72,1.72,0,0,0,.51.35,1.37,1.37,0,0,0,.55.12H112l0,.11a1.9,1.9,0,0,1-.85.25,1.46,1.46,0,0,1-1-.42,1.74,1.74,0,0,1-.42-.63,2.11,2.11,0,0,1-.15-.8,2.16,2.16,0,0,1,.74-1.68,2.79,2.79,0,0,1,1.92-.67,3.2,3.2,0,0,1,1.17.21,2.28,2.28,0,0,1,.9.61,2.4,2.4,0,0,1,.5.81,2.73,2.73,0,0,1,.17,1,3.69,3.69,0,0,1-.7,2.06,8,8,0,0,1-.82,1c-.32.33-.77.73-1.34,1.21-.73.6-1.26,1.05-1.58,1.34H113a3.27,3.27,0,0,0,.86-.08,1.11,1.11,0,0,0,.57-.34,1.91,1.91,0,0,0,.41-.78l.15,0Z"/><path class="cls-3" d="M119.91,88.84a1.77,1.77,0,0,1,1.31.64,4.26,4.26,0,0,1,.6.8,7.28,7.28,0,0,1,.5,1,5.68,5.68,0,0,1,0,4.48,6.77,6.77,0,0,1-.5,1,4.62,4.62,0,0,1-.6.8,1.66,1.66,0,0,1-2.62,0,4.62,4.62,0,0,1-.6-.8,6.77,6.77,0,0,1-.5-1,6.4,6.4,0,0,1-.46-2.24,6.31,6.31,0,0,1,.46-2.24,7.28,7.28,0,0,1,.5-1,4.26,4.26,0,0,1,.6-.8A1.8,1.8,0,0,1,119.91,88.84Zm0,.16a.81.81,0,0,0-.52.21,1.63,1.63,0,0,0-.46.56,3.58,3.58,0,0,0-.31.74,8.43,8.43,0,0,0-.25.92,10.09,10.09,0,0,0,0,4.19,8,8,0,0,0,.25.93,3.46,3.46,0,0,0,.31.73,1.82,1.82,0,0,0,.46.57.82.82,0,0,0,.54.2.89.89,0,0,0,.51-.2,2.08,2.08,0,0,0,.46-.57,4.16,4.16,0,0,0,.3-.73,6.41,6.41,0,0,0,.25-.93,10,10,0,0,0,.22-2.09,10.13,10.13,0,0,0-.22-2.1,6.65,6.65,0,0,0-.25-.92,4.31,4.31,0,0,0-.3-.74,1.89,1.89,0,0,0-.46-.56A.83.83,0,0,0,119.91,89Z"/><path class="cls-3" d="M127,89h.16V96.3a3.26,3.26,0,0,0,.09.84.87.87,0,0,0,.28.48,1.73,1.73,0,0,0,1,.34v.14h-3.87V98a2.79,2.79,0,0,0,.67-.11.89.89,0,0,0,.4-.27.91.91,0,0,0,.24-.44,3.92,3.92,0,0,0,.06-.8V90a4.26,4.26,0,0,1-.54,0,2.91,2.91,0,0,1-.79-.08v-.12h.15a2.93,2.93,0,0,0,1-.17,4.4,4.4,0,0,0,1-.55Z"/><path class="cls-3" d="M135.62,98.1h-5.2V98a22.14,22.14,0,0,0,3.06-3.32,11.07,11.07,0,0,0,1.19-1.94,3.71,3.71,0,0,0,.37-1.53,2.33,2.33,0,0,0-.61-1.62,1.69,1.69,0,0,0-2.81.5,2.08,2.08,0,0,0-.18.87,1.76,1.76,0,0,0,.52,1.29,1.72,1.72,0,0,0,.51.35,1.37,1.37,0,0,0,.55.12h.16l0,.11a1.9,1.9,0,0,1-.85.25,1.46,1.46,0,0,1-1-.42,1.74,1.74,0,0,1-.42-.63,2.11,2.11,0,0,1-.15-.8,2.16,2.16,0,0,1,.74-1.68,2.79,2.79,0,0,1,1.92-.67,3.2,3.2,0,0,1,1.17.21,2.28,2.28,0,0,1,.9.61,2.4,2.4,0,0,1,.5.81,2.73,2.73,0,0,1,.17,1,3.69,3.69,0,0,1-.7,2.06,8,8,0,0,1-.82,1c-.32.33-.77.73-1.34,1.21-.73.6-1.26,1.05-1.57,1.34h2.41A3.42,3.42,0,0,0,135,97a1.12,1.12,0,0,0,.56-.34,1.91,1.91,0,0,0,.41-.78l.15,0Z"/></g></g></g></svg>